<svg width="22" height="22" viewBox="0 0 22 22" fill="none" xmlns="http://www.w3.org/2000/svg">
<path d="M3 11C3 7.22876 3 5.34315 4.17157 4.17157C5.34315 3 7.22876 3 11 3C14.7712 3 16.6569 3 17.8284 4.17157C19 5.34315 19 7.22876 19 11C19 14.7712 19 16.6569 17.8284 17.8284C16.6569 19 14.7712 19 11 19C7.22876 19 5.34315 19 4.17157 17.8284C3 16.6569 3 14.7712 3 11Z" stroke="#0A0A41" stroke-width="1.5" stroke-linejoin="round"/>
<path d="M6.5 14L8.34189 8.47434C8.43631 8.19107 8.7014 8 9 8C9.2986 8 9.5637 8.19107 9.6581 8.47434L11.5 14M7.5 12H10.5" stroke="#0A0A41" stroke-width="1.5" stroke-linecap="round" stroke-linejoin="round"/>
<path d="M14.5 8V14" stroke="#0A0A41" stroke-width="1.5" stroke-linecap="round" stroke-linejoin="round"/>
<path d="M7 1V3M15 1V3M11 1V3M7 19V21M11 19V21M15 19V21M21 15H19M3 7H1M3 15H1M3 11H1M21 7H19M21 11H19" stroke="#0A0A41" stroke-width="1.5" stroke-linecap="round" stroke-linejoin="round"/>
</svg>
