<svg width="18" height="22" viewBox="0 0 18 22" fill="none" xmlns="http://www.w3.org/2000/svg">
<path d="M1 9V13.5442C1 16.7892 1 18.4117 1.88607 19.5107C2.06508 19.7327 2.26731 19.9349 2.48933 20.1139C3.58831 21 5.21082 21 8.45586 21C9.16136 21 9.51416 21 9.83716 20.886C9.90436 20.8623 9.97026 20.835 10.0346 20.8043C10.3436 20.6564 10.593 20.407 11.0919 19.9081L15.8285 15.1716C16.4065 14.5935 16.6956 14.3045 16.8478 13.9369C17 13.5694 17 13.1606 17 12.3431V9C17 5.22876 17 3.34315 15.8285 2.17157C14.6569 1 12.7713 1 8.99996 1M9.99996 20.5V20C9.99996 17.1716 9.99996 15.7574 10.8787 14.8787C11.7574 14 13.1716 14 16 14H16.5" stroke="#111111" stroke-width="1.5" stroke-linecap="round" stroke-linejoin="round"/>
<path d="M4 7C3.39316 6.41016 1 4.84027 1 4C1 3.15973 3.39316 1.58984 4 1M1.5 4H4C5.86923 4 6.80385 4 7.49996 4.40192C7.95606 4.66523 8.33476 5.04394 8.59806 5.5C8.99996 6.19615 8.99996 7.13077 8.99996 9" stroke="#22CB67" stroke-width="1.5" stroke-linecap="round" stroke-linejoin="round"/>
</svg>
