<svg width="22" height="22" viewBox="0 0 22 22" fill="none" xmlns="http://www.w3.org/2000/svg">
<path d="M6 5C4.77936 5.00366 4.10383 5.03286 3.54873 5.26585C2.7712 5.5922 2.13801 6.19503 1.76811 6.9611C1.46618 7.58638 1.41678 8.3875 1.31796 9.98975L1.16312 12.5005C0.917387 16.4849 0.794517 18.4771 1.96369 19.7383C3.13285 20.9995 5.10253 20.9995 9.04192 20.9995H12.9581C16.8975 20.9995 18.8671 20.9995 20.0363 19.7383C21.2055 18.4771 21.0826 16.4849 20.8369 12.5005L20.682 9.98975C20.5832 8.3875 20.5338 7.58638 20.2319 6.9611C19.862 6.19503 19.2288 5.5922 18.4513 5.26585C17.8962 5.03286 17.2206 5.00366 16 5" stroke="#666666" stroke-width="1.5" stroke-linecap="round"/>
<path d="M16 6L15.1142 3.78543C14.732 2.82996 14.3994 1.7461 13.4166 1.25955C12.8924 1 12.2616 1 11 1C9.7384 1 9.1076 1 8.58335 1.25955C7.6006 1.7461 7.26801 2.82996 6.88583 3.78543L6 6" stroke="#666666" stroke-width="1.5" stroke-linecap="round" stroke-linejoin="round"/>
<path d="M14.5 13C14.5 14.933 12.933 16.5 11 16.5C9.067 16.5 7.5 14.933 7.5 13C7.5 11.067 9.067 9.5 11 9.5C12.933 9.5 14.5 11.067 14.5 13Z" stroke="#666666" stroke-width="1.5"/>
<path d="M10.9998 5H11.0088" stroke="#666666" stroke-width="2" stroke-linecap="round" stroke-linejoin="round"/>
</svg>
