<svg width="22" height="18" viewBox="0 0 22 18" fill="none" xmlns="http://www.w3.org/2000/svg">
<path d="M10 9H1V12V13.5L2.5 16.5H19.5L20.5 14L21 12V9H18C17.8333 10.3333 16.8 13 14 13C11.2 13 10.1667 10.3333 10 9Z" fill="#22CB67"/>
<path d="M18 9C18 11.2091 16.2091 13 14 13C11.7909 13 10 11.2091 10 9C10 6.79086 11.7909 5 14 5C16.2091 5 18 6.79086 18 9Z" stroke="#111111" stroke-width="1.5"/>
<path d="M21 9H18M10 9H1" stroke="#111111" stroke-width="1.5" stroke-linecap="round"/>
<path d="M5 13H5.00808" stroke="#111111" stroke-width="2" stroke-linecap="round"/>
<path d="M13 1H9C5.22876 1 3.34315 1 2.17157 2.17157C1 3.34315 1 5.22876 1 9C1 12.7712 1 14.6569 2.17157 15.8284C3.34315 17 5.22876 17 9 17H13C16.7712 17 18.6569 17 19.8284 15.8284C21 14.6569 21 12.7712 21 9C21 5.22876 21 3.34315 19.8284 2.17157C18.6569 1 16.7712 1 13 1Z" stroke="#111111" stroke-width="1.5" stroke-linejoin="round"/>
</svg>
