<svg width="18" height="17" viewBox="0 0 18 17" fill="none" xmlns="http://www.w3.org/2000/svg">
<path fill-rule="evenodd" clip-rule="evenodd" d="M13.5835 10.9997C13.2067 10.9997 12.6743 11.0518 12.12 11.1277C11.8611 11.1631 11.6636 11.3606 11.6282 11.6195C11.5523 12.1738 11.5002 12.7062 11.5002 13.083C11.5002 13.4598 11.5523 13.9922 11.6282 14.5465C11.6636 14.8054 11.8611 15.0029 12.12 15.0383C12.6743 15.1143 13.2067 15.1663 13.5835 15.1663C13.9603 15.1663 14.4927 15.1143 15.047 15.0383C15.3059 15.0029 15.5034 14.8054 15.5388 14.5465C15.6147 13.9922 15.6668 13.4598 15.6668 13.083C15.6668 12.7062 15.6147 12.1738 15.5388 11.6195C15.5034 11.3606 15.3059 11.1631 15.047 11.1277C14.4927 11.0518 13.9603 10.9997 13.5835 10.9997ZM11.8939 9.47642C10.8939 9.61336 10.1138 10.3935 9.97691 11.3934C9.89836 11.9669 9.8335 12.5898 9.8335 13.083C9.8335 13.5762 9.89836 14.1991 9.97691 14.7726C10.1138 15.7726 10.8939 16.5527 11.8939 16.6896C12.4674 16.7681 13.0903 16.833 13.5835 16.833C14.0767 16.833 14.6996 16.7681 15.2731 16.6896C16.2731 16.5527 17.0531 15.7726 17.1901 14.7726C17.2686 14.1991 17.3335 13.5762 17.3335 13.083C17.3335 12.5898 17.2686 11.9669 17.1901 11.3934C17.0531 10.3935 16.2731 9.61336 15.2731 9.47642C14.6996 9.39787 14.0767 9.33301 13.5835 9.33301C13.0903 9.33301 12.4674 9.39787 11.8939 9.47642Z" fill="#111111" fill-opacity="0.5"/>
<path fill-rule="evenodd" clip-rule="evenodd" d="M4.4165 10.9997C4.03969 10.9997 3.50728 11.0518 2.95301 11.1277C2.69407 11.1631 2.49663 11.3606 2.46117 11.6195C2.38526 12.1738 2.33317 12.7062 2.33317 13.083C2.33317 13.4598 2.38526 13.9922 2.46117 14.5465C2.49663 14.8054 2.69407 15.0029 2.95301 15.0383C3.50728 15.1143 4.03969 15.1663 4.4165 15.1663C4.79332 15.1663 5.32573 15.1143 5.87999 15.0383C6.13893 15.0029 6.33638 14.8054 6.37184 14.5465C6.44775 13.9922 6.49984 13.4598 6.49984 13.083C6.49984 12.7062 6.44775 12.1738 6.37184 11.6195C6.33638 11.3606 6.13893 11.1631 5.87999 11.1277C5.32573 11.0518 4.79332 10.9997 4.4165 10.9997ZM2.72687 9.47642C1.72695 9.61336 0.946857 10.3935 0.809914 11.3934C0.731369 11.9669 0.666504 12.5898 0.666504 13.083C0.666504 13.5762 0.731369 14.1991 0.809914 14.7726C0.946857 15.7726 1.72695 16.5527 2.72687 16.6896C3.30038 16.7681 3.92331 16.833 4.4165 16.833C4.9097 16.833 5.53263 16.7681 6.10614 16.6896C7.10606 16.5527 7.88615 15.7726 8.02309 14.7726C8.10164 14.1991 8.1665 13.5762 8.1665 13.083C8.1665 12.5898 8.10164 11.9669 8.02309 11.3934C7.88615 10.3935 7.10606 9.61336 6.10614 9.47642C5.53263 9.39787 4.9097 9.33301 4.4165 9.33301C3.92331 9.33301 3.30038 9.39787 2.72687 9.47642Z" fill="#111111" fill-opacity="0.5"/>
<path fill-rule="evenodd" clip-rule="evenodd" d="M13.5835 1.83366C13.2067 1.83366 12.6743 1.88575 12.12 1.96165C11.8611 1.99712 11.6636 2.19456 11.6282 2.4535C11.5523 3.00776 11.5002 3.54017 11.5002 3.91699C11.5002 4.29381 11.5523 4.82622 11.6282 5.38048C11.6636 5.63942 11.8611 5.83687 12.12 5.87233C12.6743 5.94824 13.2067 6.00033 13.5835 6.00033C13.9603 6.00033 14.4927 5.94824 15.047 5.87233C15.3059 5.83687 15.5034 5.63942 15.5388 5.38048C15.6147 4.82622 15.6668 4.29381 15.6668 3.91699C15.6668 3.54017 15.6147 3.00776 15.5388 2.4535C15.5034 2.19456 15.3059 1.99712 15.047 1.96165C14.4927 1.88575 13.9603 1.83366 13.5835 1.83366ZM11.8939 0.310402C10.8939 0.447345 10.1138 1.22744 9.97691 2.22736C9.89836 2.80086 9.8335 3.42379 9.8335 3.91699C9.8335 4.41019 9.89836 5.03312 9.97691 5.60663C10.1138 6.60655 10.8939 7.38664 11.8939 7.52358C12.4674 7.60213 13.0903 7.66699 13.5835 7.66699C14.0767 7.66699 14.6996 7.60213 15.2731 7.52358C16.2731 7.38664 17.0531 6.60655 17.1901 5.60663C17.2686 5.03312 17.3335 4.41019 17.3335 3.91699C17.3335 3.42379 17.2686 2.80086 17.1901 2.22736C17.0531 1.22744 16.2731 0.447345 15.2731 0.310402C14.6996 0.231858 14.0767 0.166992 13.5835 0.166992C13.0903 0.166992 12.4674 0.231858 11.8939 0.310402Z" fill="#111111" fill-opacity="0.5"/>
<path fill-rule="evenodd" clip-rule="evenodd" d="M4.4165 1.83366C4.03969 1.83366 3.50728 1.88575 2.95301 1.96165C2.69407 1.99712 2.49663 2.19456 2.46117 2.4535C2.38526 3.00776 2.33317 3.54017 2.33317 3.91699C2.33317 4.29381 2.38526 4.82622 2.46117 5.38048C2.49663 5.63942 2.69407 5.83687 2.95301 5.87233C3.50728 5.94824 4.03969 6.00033 4.4165 6.00033C4.79332 6.00033 5.32573 5.94824 5.87999 5.87233C6.13893 5.83687 6.33638 5.63942 6.37184 5.38048C6.44775 4.82622 6.49984 4.29381 6.49984 3.91699C6.49984 3.54017 6.44775 3.00776 6.37184 2.4535C6.33638 2.19456 6.13893 1.99712 5.87999 1.96165C5.32573 1.88575 4.79332 1.83366 4.4165 1.83366ZM2.72687 0.310402C1.72695 0.447345 0.946857 1.22744 0.809914 2.22736C0.731369 2.80086 0.666504 3.42379 0.666504 3.91699C0.666504 4.41019 0.731369 5.03312 0.809914 5.60663C0.946857 6.60655 1.72695 7.38664 2.72687 7.52358C3.30038 7.60213 3.92331 7.66699 4.4165 7.66699C4.9097 7.66699 5.53263 7.60213 6.10614 7.52358C7.10606 7.38664 7.88615 6.60655 8.02309 5.60663C8.10164 5.03312 8.1665 4.41019 8.1665 3.91699C8.1665 3.42379 8.10164 2.80086 8.02309 2.22736C7.88615 1.22744 7.10606 0.447345 6.10614 0.310402C5.53263 0.231858 4.9097 0.166992 4.4165 0.166992C3.92331 0.166992 3.30038 0.231858 2.72687 0.310402Z" fill="#111111" fill-opacity="0.5"/>
</svg>
