<svg width="17" height="17" viewBox="0 0 17 17" fill="none" xmlns="http://www.w3.org/2000/svg">
<path d="M1.4458 8.49952C1.4458 9.26003 1.57627 9.9901 1.81605 10.6685M1.81605 10.6685H7.95265M1.81605 10.6685C2.70931 13.1957 5.11952 15.0064 7.95265 15.0064C6.83623 15.0064 5.91681 12.4759 5.79694 9.22251M9.40852 6.33057H15.5451M15.5451 6.33057C14.6518 3.80333 12.2416 1.99268 9.40852 1.99268C10.5659 1.99268 11.5116 4.71255 11.5741 8.13803M15.5451 6.33057C15.7466 6.90077 15.8709 7.50745 15.9055 8.13803" stroke="#22CB67" stroke-width="1.08447" stroke-linecap="round" stroke-linejoin="round"/>
<path d="M1.4458 3.65394C1.4458 2.85984 1.4458 2.46279 1.58127 2.15487C1.72494 1.82833 1.97257 1.56587 2.28067 1.4136C2.5712 1.27002 2.94583 1.27002 3.69508 1.27002H4.33773C5.701 1.27002 6.38264 1.27002 6.80615 1.71888C7.22967 2.16775 7.22967 2.89019 7.22967 4.33506V5.96833C7.22967 6.59859 7.22967 6.91372 7.03875 7.02202C6.84783 7.1303 6.60043 6.9555 6.10564 6.60589L6.03026 6.55263C5.66864 6.29713 5.48784 6.16937 5.28293 6.10362C5.07801 6.03786 4.86071 6.03786 4.4261 6.03786H3.69508C2.94583 6.03786 2.5712 6.03786 2.28067 5.89428C1.97257 5.74201 1.72494 5.47955 1.58127 5.15301C1.4458 4.84509 1.4458 4.44804 1.4458 3.65394Z" stroke="#22CB67" stroke-width="1.08447"/>
<path d="M15.9054 12.3297C15.9054 11.5356 15.9054 11.1386 15.77 10.8307C15.6263 10.5041 15.3787 10.2416 15.0705 10.0894C14.7801 9.9458 14.4054 9.9458 13.6562 9.9458H13.0135C11.6503 9.9458 10.9686 9.9458 10.5451 10.3947C10.1216 10.8435 10.1216 11.5659 10.1216 13.0108V14.6441C10.1216 15.2744 10.1216 15.5895 10.3125 15.6978C10.5034 15.8061 10.7508 15.6313 11.2456 15.2817L11.321 15.2284C11.6826 14.9729 11.8634 14.8452 12.0683 14.7794C12.2733 14.7137 12.4905 14.7137 12.9252 14.7137H13.6562C14.4054 14.7137 14.7801 14.7137 15.0705 14.5701C15.3787 14.4178 15.6263 14.1554 15.77 13.8288C15.9054 13.5209 15.9054 13.1238 15.9054 12.3297Z" stroke="#22CB67" stroke-width="1.08447"/>
</svg>
