<svg width="17" height="17" viewBox="0 0 17 17" fill="none" xmlns="http://www.w3.org/2000/svg">
<path d="M4.67888 6.33203C3.10637 6.34152 2.25476 6.41706 1.69924 7.01888C1.06396 7.70712 1.06396 8.81473 1.06396 11.03C1.06396 13.2454 1.06396 14.353 1.69924 15.0412C2.33451 15.7294 3.35696 15.7294 5.40186 15.7294H11.1857C13.2306 15.7294 14.2531 15.7294 14.8883 15.0412C15.5236 14.353 15.5236 13.2454 15.5236 11.03C15.5236 8.81473 15.5236 7.70712 14.8883 7.01888C14.3328 6.41706 13.4812 6.34152 11.9087 6.33203" stroke="#22CB67" stroke-width="1.08447" stroke-linecap="round" stroke-linejoin="round"/>
<path d="M3.95605 8.5L7.20948 10.3978L3.95605 12.5487M12.6319 13.5609L9.59532 11.7896L12.6319 9.76522" stroke="#22CB67" stroke-width="1.08447" stroke-linecap="round" stroke-linejoin="round"/>
<path d="M8.29379 4.88493C9.29201 4.88493 10.1012 4.07571 10.1012 3.07748C10.1012 2.07925 9.29201 1.27002 8.29379 1.27002C7.29556 1.27002 6.48633 2.07925 6.48633 3.07748C6.48633 4.07571 7.29556 4.88493 8.29379 4.88493ZM8.29379 4.88493V7.77687" stroke="#22CB67" stroke-width="1.08447" stroke-linecap="round"/>
</svg>
