<svg width="24" height="23" viewBox="0 0 24 23" fill="none" xmlns="http://www.w3.org/2000/svg">
<path d="M22.4004 4.49023C22.4004 6.42323 20.8334 7.99023 18.9004 7.99023C16.9674 7.99023 15.4004 6.42323 15.4004 4.49023C15.4004 2.55723 16.9674 0.990234 18.9004 0.990234C20.8334 0.990234 22.4004 2.55723 22.4004 4.49023Z" stroke="#111111" stroke-width="1.5"/>
<path d="M21.3602 10.9609C21.4138 11.7911 21.4138 12.6509 21.3602 13.4811C21.086 17.7234 17.754 21.1027 13.571 21.3807C12.1439 21.4756 10.654 21.4754 9.22979 21.3807C8.73935 21.3481 8.20479 21.2311 7.7444 21.0415C7.23216 20.8305 6.97599 20.725 6.84583 20.741C6.71566 20.757 6.52679 20.8963 6.14907 21.1748C5.48307 21.6659 4.64406 22.0187 3.39982 21.9884C2.77065 21.9731 2.45607 21.9654 2.31523 21.7253C2.1744 21.4852 2.3498 21.1528 2.7006 20.488C3.18713 19.566 3.4954 18.5105 3.0283 17.6648C2.22382 16.4568 1.54049 15.0262 1.44063 13.4811C1.38698 12.6509 1.38698 11.7911 1.44063 10.9609C1.7148 6.71862 5.04678 3.33937 9.22979 3.06131C10.4322 2.98138 10.6816 2.9688 11.9004 3.02392" stroke="#111111" stroke-width="1.5" stroke-linecap="round" stroke-linejoin="round"/>
<path d="M11.3959 12.7402H11.4049M15.3914 12.7402H15.4004M7.40039 12.7402H7.40936" stroke="#111111" stroke-width="2" stroke-linecap="round" stroke-linejoin="round"/>
</svg>
