<svg width="24" height="19" viewBox="0 0 24 19" fill="none" xmlns="http://www.w3.org/2000/svg">
<path d="M20.774 16C21.5233 16 22.1193 15.5285 22.6544 14.8691C23.7499 13.5194 21.9513 12.4408 21.2653 11.9126C20.568 11.3756 19.7894 11.0714 19 11M18 9C19.3807 9 20.5 7.88071 20.5 6.5C20.5 5.11929 19.3807 4 18 4" stroke="#0A0A41" stroke-width="1.5" stroke-linecap="round"/>
<path d="M3.22596 16C2.47665 16 1.88067 15.5285 1.34554 14.8691C0.250091 13.5194 2.04867 12.4408 2.73464 11.9126C3.43197 11.3756 4.21058 11.0714 5 11M5.5 9C4.11929 9 3 7.88071 3 6.5C3 5.11929 4.11929 4 5.5 4" stroke="#0A0A41" stroke-width="1.5" stroke-linecap="round"/>
<path d="M8.08356 13.1112C7.06178 13.743 4.38274 15.0331 6.01446 16.6474C6.81154 17.436 7.69928 18 8.81538 18H15.1842C16.3003 18 17.188 17.436 17.9851 16.6474C19.6168 15.0331 16.9378 13.743 15.916 13.1112C13.5199 11.6296 10.4796 11.6296 8.08356 13.1112Z" stroke="#111111" stroke-width="1.5" stroke-linecap="round" stroke-linejoin="round"/>
<path fill-rule="evenodd" clip-rule="evenodd" d="M12 2.75C10.4812 2.75 9.25 3.98122 9.25 5.5C9.25 7.01878 10.4812 8.25 12 8.25C13.5188 8.25 14.75 7.01879 14.75 5.5C14.75 3.98121 13.5188 2.75 12 2.75ZM7.75 5.5C7.75 3.15278 9.65281 1.25 12 1.25C14.3472 1.25 16.25 3.15279 16.25 5.5C16.25 7.84721 14.3472 9.75 12 9.75C9.65281 9.75 7.75 7.84722 7.75 5.5Z" fill="#22CB67" stroke="#22CB67" stroke-opacity="0.3" stroke-width="2"/>
</svg>
