<svg width="25" height="26" viewBox="0 0 25 26" fill="none" xmlns="http://www.w3.org/2000/svg">
<path d="M14.7002 3.1565C13.918 2.89006 13.0766 2.74512 12.2002 2.74512C8.04433 2.74512 4.67533 6.00422 4.67533 10.0245C4.67523 11.0648 4.61292 12.0426 3.98581 12.9391C3.50704 13.6152 2.86081 14.3076 2.73012 15.1391C2.51747 16.4922 3.4682 17.4313 4.63225 17.8993C9.09501 19.6937 15.3054 19.6937 19.7681 17.8993C20.9322 17.4313 21.8829 16.4922 21.6703 15.1391C21.5906 14.632 21.3191 14.1766 21.0108 13.7451" stroke="#111111" stroke-width="1.5" stroke-linecap="round" stroke-linejoin="round"/>
<path d="M9.2002 22.2451C9.99633 22.867 11.0477 23.2451 12.2002 23.2451C13.3527 23.2451 14.4041 22.867 15.2002 22.2451" stroke="#111111" stroke-width="1.5" stroke-linecap="round" stroke-linejoin="round"/>
<path d="M21.2002 8.40202C21.2002 6.42875 19.6332 4.8291 17.7002 4.8291C15.7672 4.8291 14.2002 6.42875 14.2002 8.40202C14.2002 10.3753 15.7672 11.9749 17.7002 11.9749C19.6332 11.9749 21.2002 10.3753 21.2002 8.40202Z" stroke="#111111" stroke-width="1.5" stroke-linecap="round"/>
</svg>
