<svg width="16" height="16" viewBox="0 0 16 16" fill="none" xmlns="http://www.w3.org/2000/svg">
<path fill-rule="evenodd" clip-rule="evenodd" d="M8 4.4375C8.31066 4.4375 8.5625 4.68934 8.5625 5V7.4375H11C11.3107 7.4375 11.5625 7.68934 11.5625 8C11.5625 8.31066 11.3107 8.5625 11 8.5625H8.5625V11C8.5625 11.3107 8.31066 11.5625 8 11.5625C7.68934 11.5625 7.4375 11.3107 7.4375 11V8.5625H5C4.68934 8.5625 4.4375 8.31066 4.4375 8C4.4375 7.68934 4.68934 7.4375 5 7.4375H7.4375V5C7.4375 4.68934 7.68934 4.4375 8 4.4375Z" fill="#22CB67"/>
<path d="M9.0625 5C9.0625 4.4132 8.5868 3.9375 8 3.9375C7.4132 3.9375 6.9375 4.4132 6.9375 5V6.9375H5C4.4132 6.9375 3.9375 7.4132 3.9375 8C3.9375 8.5868 4.4132 9.0625 5 9.0625H6.9375V11C6.9375 11.5868 7.4132 12.0625 8 12.0625C8.5868 12.0625 9.0625 11.5868 9.0625 11V9.0625H11C11.5868 9.0625 12.0625 8.5868 12.0625 8C12.0625 7.4132 11.5868 6.9375 11 6.9375H9.0625V5Z" stroke="#22CB67" stroke-opacity="0.3" stroke-linecap="round" stroke-linejoin="round"/>
<path d="M0.875 8C0.875 4.64125 0.875 2.96187 1.91843 1.91843C2.96187 0.875 4.64125 0.875 8 0.875C11.3587 0.875 13.0381 0.875 14.0816 1.91843C15.125 2.96187 15.125 4.64125 15.125 8C15.125 11.3587 15.125 13.0381 14.0816 14.0816C13.0381 15.125 11.3587 15.125 8 15.125C4.64125 15.125 2.96187 15.125 1.91843 14.0816C0.875 13.0381 0.875 11.3587 0.875 8Z" stroke="white" stroke-width="1.5"/>
</svg>
