<svg width="24" height="24" viewBox="0 0 24 24" fill="none" xmlns="http://www.w3.org/2000/svg">
<path fill-rule="evenodd" clip-rule="evenodd" d="M12.0001 6.85425C12.4488 6.85425 12.8126 7.21802 12.8126 7.66675V11.1876H16.3334C16.7821 11.1876 17.1459 11.5514 17.1459 12.0001C17.1459 12.4488 16.7821 12.8126 16.3334 12.8126H12.8126V16.3334C12.8126 16.7821 12.4488 17.1459 12.0001 17.1459C11.5514 17.1459 11.1876 16.7821 11.1876 16.3334V12.8126H7.66675C7.21802 12.8126 6.85425 12.4488 6.85425 12.0001C6.85425 11.5514 7.21802 11.1876 7.66675 11.1876H11.1876V7.66675C11.1876 7.21802 11.5514 6.85425 12.0001 6.85425Z" fill="#22CB67"/>
<path d="M13.8126 7.66675C13.8126 6.66573 13.0011 5.85425 12.0001 5.85425C10.9991 5.85425 10.1876 6.66573 10.1876 7.66675V10.1876H7.66675C6.66573 10.1876 5.85425 10.9991 5.85425 12.0001C5.85425 13.0011 6.66573 13.8126 7.66675 13.8126H10.1876V16.3334C10.1876 17.3344 10.9991 18.1459 12.0001 18.1459C13.0011 18.1459 13.8126 17.3344 13.8126 16.3334V13.8126H16.3334C17.3344 13.8126 18.1459 13.0011 18.1459 12.0001C18.1459 10.9991 17.3344 10.1876 16.3334 10.1876H13.8126V7.66675Z" stroke="#22CB67" stroke-opacity="0.3" stroke-width="2" stroke-linecap="round" stroke-linejoin="round"/>
<path d="M1.70825 11.9999C1.70825 7.14838 1.70825 4.72262 3.21543 3.21543C4.72262 1.70825 7.14838 1.70825 11.9999 1.70825C16.8514 1.70825 19.2772 1.70825 20.7845 3.21543C22.2916 4.72262 22.2916 7.14838 22.2916 11.9999C22.2916 16.8514 22.2916 19.2772 20.7845 20.7845C19.2772 22.2916 16.8514 22.2916 11.9999 22.2916C7.14838 22.2916 4.72262 22.2916 3.21543 20.7845C1.70825 19.2772 1.70825 16.8514 1.70825 11.9999Z" stroke="#0A0A41" stroke-width="2.625"/>
</svg>
