<svg width="24" height="26" viewBox="0 0 24 26" fill="none" xmlns="http://www.w3.org/2000/svg">
<path fill-rule="evenodd" clip-rule="evenodd" d="M11.9996 2.87497C9.96675 2.87497 8.27327 4.31532 8.10445 6.18788L7.9221 8.21051L6.29785 8.0854L6.4802 6.06276C6.71942 3.40936 9.11907 1.36841 11.9996 1.36841C14.8801 1.36841 17.2798 3.40936 17.519 6.06275L17.7014 8.08541L16.0771 8.21051L15.8948 6.18789C15.8948 6.18788 15.8948 6.1879 15.8948 6.18789C15.7259 4.31532 14.0324 2.87497 11.9996 2.87497Z" fill="#22CB67"/>
<path d="M15.8948 6.18789L15.8948 6.18789L15.8948 6.18789ZM15.8948 6.18789L16.0771 8.21051L8.10445 6.18788C8.27327 4.31532 9.96675 2.87497 11.9996 2.87497C14.0324 2.87497 15.7259 4.31532 15.8948 6.18789ZM7.86989 8.88833L8.53893 8.93987L8.59918 8.27155L8.78153 6.24892C8.91491 4.76948 10.2739 3.5548 11.9996 3.5548C13.7252 3.5548 15.0843 4.76946 15.2177 6.24893L15.4 8.27154L15.4603 8.93985L16.1293 8.88832L17.7536 8.76322L18.4403 8.71033L18.3784 8.02437L18.1961 6.00172L18.1961 6.0017C17.9214 2.9552 15.1873 0.688584 11.9996 0.688584C8.81189 0.688584 6.07778 2.9552 5.80312 6.00172L5.62077 8.02436L5.55893 8.71032L6.24564 8.76322L7.86989 8.88833Z" stroke="#22CB67" stroke-opacity="0.3" stroke-width="1.35965"/>
<path fill-rule="evenodd" clip-rule="evenodd" d="M8.67561 11.1077C9.12245 11.0666 9.51802 11.3955 9.55914 11.8424C9.65565 12.8913 10.6565 13.8126 12.0001 13.8126C13.3436 13.8126 14.3445 12.8913 14.441 11.8424C14.4821 11.3955 14.8776 11.0666 15.3245 11.1077C15.7713 11.1488 16.1002 11.5444 16.0591 11.9912C15.874 14.004 14.0488 15.4376 12.0001 15.4376C9.95125 15.4376 8.12616 14.004 7.94097 11.9912C7.89986 11.5444 8.22877 11.1488 8.67561 11.1077Z" fill="#0A0A41" stroke="#0A0A41" stroke-opacity="0.2" stroke-width="1.35965" stroke-linecap="round"/>
<path d="M2.31694 16.4595L2.71262 14.2155C3.18027 11.5631 3.4141 10.2371 4.34006 9.4519C5.26604 8.66675 6.59618 8.66675 9.25645 8.66675H14.7439C17.4042 8.66675 18.7343 8.66675 19.6603 9.4519C20.5862 10.2371 20.82 11.5631 21.2877 14.2155L21.6834 16.4595C22.3305 20.1296 22.6541 21.9647 21.6578 23.1699C20.6614 24.3751 18.8207 24.3751 15.1396 24.3751H8.86077C5.17956 24.3751 3.33896 24.3751 2.3426 23.1699C1.34625 21.9647 1.66982 20.1296 2.31694 16.4595Z" stroke="#0A0A41" stroke-width="1.9375"/>
</svg>
