<svg width="22" height="22" viewBox="0 0 22 22" fill="none" xmlns="http://www.w3.org/2000/svg">
<path d="M19.9977 11.5032C19.9977 11.5032 20 11.0338 20 10.5029C20 6.02321 20 3.78334 18.6088 2.39167C17.2175 1 14.9783 1 10.5 1C6.02166 1 3.78249 1 2.39124 2.39167C1 3.78334 1 6.02321 1 10.5029C1 14.9827 1 17.2225 2.39124 18.6142C3.55785 19.7812 5.32067 19.9696 8.5 20" stroke="#141B34" stroke-width="1.5" stroke-linecap="round"/>
<path d="M1 6H20" stroke="#141B34" stroke-width="1.5" stroke-linejoin="round"/>
<path d="M5 15H6M9 11H14M5 11H6" stroke="#141B34" stroke-width="1.5" stroke-linecap="round" stroke-linejoin="round"/>
<path d="M16 17.5H16.009" stroke="#141B34" stroke-width="2" stroke-linecap="round" stroke-linejoin="round"/>
<path d="M20.772 17.0225C20.924 17.2357 21 17.3422 21 17.5C21 17.6578 20.924 17.7643 20.772 17.9775C20.089 18.9353 18.3446 21 16 21C13.6554 21 11.911 18.9353 11.228 17.9775C11.076 17.7643 11 17.6578 11 17.5C11 17.3422 11.076 17.2357 11.228 17.0225C11.911 16.0647 13.6554 14 16 14C18.3446 14 20.089 16.0647 20.772 17.0225Z" stroke="#141B34" stroke-width="1.5"/>
</svg>
