<svg width="21" height="20" viewBox="0 0 21 20" fill="none" xmlns="http://www.w3.org/2000/svg">
<path d="M19.9194 18.3075L16.2116 14.6275C17.6508 12.8319 18.3478 10.5528 18.1592 8.25878C17.9706 5.96478 16.9108 3.83027 15.1977 2.29413C13.4846 0.757989 11.2483 -0.0630074 8.94882 -4.70059e-05C6.6493 0.0629134 4.46128 1.00504 2.83467 2.63262C1.20806 4.2602 0.266487 6.44952 0.203564 8.75041C0.140641 11.0513 0.961149 13.2889 2.49638 15.003C4.0316 16.7172 6.16485 17.7776 8.45749 17.9663C10.7501 18.155 13.0279 17.4576 14.8224 16.0175L18.5002 19.6975C18.5931 19.7912 18.7037 19.8656 18.8254 19.9164C18.9472 19.9671 19.0779 19.9933 19.2098 19.9933C19.3417 19.9933 19.4724 19.9671 19.5941 19.9164C19.7159 19.8656 19.8265 19.7912 19.9194 19.6975C20.0995 19.511 20.2002 19.2618 20.2002 19.0025C20.2002 18.7431 20.0995 18.4939 19.9194 18.3075ZM9.21574 16.0175C7.83209 16.0175 6.47952 15.6069 5.32906 14.8378C4.1786 14.0686 3.28192 12.9753 2.75242 11.6963C2.22292 10.4172 2.08438 9.00972 2.35432 7.65185C2.62425 6.29398 3.29054 5.0467 4.26893 4.06774C5.24732 3.08877 6.49386 2.42208 7.85092 2.15199C9.20798 1.88189 10.6146 2.02051 11.8929 2.55033C13.1713 3.08014 14.2639 3.97735 15.0326 5.12849C15.8013 6.27963 16.2116 7.63301 16.2116 9.01748C16.2116 10.874 15.4745 12.6545 14.1625 13.9672C12.8506 15.28 11.0711 16.0175 9.21574 16.0175Z" fill="#BCBCBC"/>
</svg>
