<svg width="6" height="20" viewBox="0 0 6 20" fill="none" xmlns="http://www.w3.org/2000/svg">
<path d="M3.5 1H2.5C1.94772 1 1.5 1.44772 1.5 2V3C1.5 3.55228 1.94772 4 2.5 4H3.5C4.05228 4 4.5 3.55228 4.5 3V2C4.5 1.44772 4.05228 1 3.5 1Z" stroke="#141B34" stroke-width="1.5"/>
<path d="M3.5 8.5H2.5C1.94772 8.5 1.5 8.94772 1.5 9.5V10.5C1.5 11.0523 1.94772 11.5 2.5 11.5H3.5C4.05228 11.5 4.5 11.0523 4.5 10.5V9.5C4.5 8.94772 4.05228 8.5 3.5 8.5Z" stroke="#141B34" stroke-width="1.5"/>
<path d="M3.5 16H2.5C1.94772 16 1.5 16.4477 1.5 17V18C1.5 18.5523 1.94772 19 2.5 19H3.5C4.05228 19 4.5 18.5523 4.5 18V17C4.5 16.4477 4.05228 16 3.5 16Z" stroke="#141B34" stroke-width="1.5"/>
</svg>
