<svg width="22" height="22" viewBox="0 0 22 22" fill="none" xmlns="http://www.w3.org/2000/svg">
<path d="M0.756104 11.1951C0.756104 6.36606 0.756103 3.95155 2.25629 2.45135C3.75648 0.951172 6.17099 0.951172 11 0.951172C15.829 0.951172 18.2435 0.951172 19.7438 2.45135C21.2439 3.95155 21.2439 6.36606 21.2439 11.1951C21.2439 16.024 21.2439 18.4386 19.7438 19.9388C18.2435 21.439 15.829 21.439 11 21.439C6.17099 21.439 3.75648 21.439 2.25629 19.9388C0.756103 18.4386 0.756104 16.024 0.756104 11.1951Z" stroke="#111111" stroke-width="0.97561"/>
<path d="M10.9675 16.6268V9.02438M10.9675 9.02438C10.6159 9.0197 10.269 9.26136 10.013 9.55639L8.29907 11.4787M10.9675 9.02438C11.3066 9.0289 11.6503 9.26934 11.9219 9.55639L13.6458 11.4787M15.2981 5.84375H6.67169" stroke="#111111" stroke-width="0.97561" stroke-linecap="round"/>
</svg>
