  <svg width="17" height="16" viewBox="0 0 17 16" fill="none" xmlns="http://www.w3.org/2000/svg">
    <path
      d="M8.55359 14.3552C12.1507 14.3552 15.0667 11.4392 15.0667 7.84217C15.0667 4.2451 12.1507 1.3291 8.55359 1.3291C4.95653 1.3291 2.04053 4.2451 2.04053 7.84217C2.04053 11.4392 4.95653 14.3552 8.55359 14.3552Z"
      stroke="#141B34"
      stroke-width="0.97696"
    />
    <path
      d="M11.1999 10.4885C11.5368 10.1516 11.4808 8.72017 11.4808 8.72017M11.1999 10.4885C10.863 10.8255 9.43159 10.7694 9.43159 10.7694M11.1999 10.4885L9.20474 8.49332M5.90689 5.1955C6.24383 4.85856 7.67522 4.91463 7.67522 4.91463M5.90689 5.1955C5.56995 5.53244 5.62606 6.96379 5.62606 6.96379M5.90689 5.1955L7.90213 7.1907"
      stroke="#141B34"
      stroke-width="0.97696"
      stroke-linecap="round"
      stroke-linejoin="round"
    />
  </svg>
