<svg width="17" height="16" viewBox="0 0 17 16" fill="none" xmlns="http://www.w3.org/2000/svg">
<path d="M8.205 3.27866C11.3145 2.2186 12.8693 1.68857 13.7055 2.52482C14.5418 3.36106 14.0117 4.91583 12.9517 8.02536L12.2298 10.1429C11.4157 12.531 11.0087 13.725 10.3376 13.8238C10.1573 13.8504 9.97056 13.8344 9.79204 13.7771C9.12822 13.564 8.7773 12.305 8.07545 9.78714C7.91979 9.22864 7.84196 8.94936 7.66467 8.73606C7.61322 8.67419 7.55617 8.61713 7.49429 8.56568C7.28099 8.38839 7.00171 8.31056 6.44325 8.1549C3.92533 7.45305 2.66638 7.10213 2.45324 6.4383C2.39594 6.25982 2.37995 6.07308 2.40652 5.89268C2.50534 5.22169 3.69938 4.81464 6.08747 4.00053L8.205 3.27866Z" fill="#22CB67" stroke="#0A0A41" stroke-width="1.32563"/>
</svg>
