<svg width="32" height="33" viewBox="0 0 32 33" fill="none" xmlns="http://www.w3.org/2000/svg">
<path d="M30 16.5C30 24.228 23.735 30.5 16 30.5C8.265 30.5 2 24.228 2 16.5C2 8.765 8.265 2.5 16 2.5C23.735 2.5 30 8.765 30 16.5Z" fill="#333333"/>
<path d="M22.5621 12.9574C22.4857 13.002 20.6671 13.9425 20.6671 16.0279C20.7528 18.4061 22.9621 19.2401 23 19.2401C22.9621 19.2847 22.6665 20.3763 21.7907 21.5205C21.0956 22.5062 20.3242 23.5 19.1528 23.5C18.0385 23.5 17.6385 22.8431 16.3528 22.8431C14.972 22.8431 14.5813 23.5 13.5242 23.5C12.3528 23.5 11.5242 22.453 10.7913 21.4766C9.8391 20.1986 9.02978 18.1931 9.00121 16.2675C8.98195 15.2471 9.19189 14.244 9.72481 13.3921C10.477 12.2026 11.8198 11.3952 13.2863 11.3686C14.4099 11.3333 15.4099 12.0875 16.0956 12.0875C16.7528 12.0875 17.9814 11.3686 19.3714 11.3686C19.9714 11.3692 21.5714 11.5376 22.5621 12.9574ZM16.0006 11.1649C15.8006 10.233 16.3528 9.30119 16.8671 8.70677C17.5242 7.98792 18.5621 7.5 19.4571 7.5C19.5143 8.43185 19.1522 9.34575 18.505 10.0114C17.9242 10.7302 16.9242 11.2714 16.0006 11.1649Z" fill="white"/>
</svg>
